<svg width="40" height="40" viewBox="0 0 40 40" fill="none" xmlns="http://www.w3.org/2000/svg">
<path d="M24.6875 19.125C23.25 20.5625 21.875 21.9375 20.4375 23.375C19.5625 22.5 18.625 21.5625 17.75 20.6875C16.625 19.5625 14.8125 21.3125 16 22.4375C17.1875 23.625 18.375 24.8125 19.5625 26C20.0625 26.5 20.875 26.5 21.3125 26L26.4375 20.875C27.625 19.75 25.875 18 24.6875 19.125Z" fill="white"/>
<path d="M32.25 5.5C32.25 5.375 32.25 5.25 32.25 5.125C32.25 4.5 31.6875 3.875 31 3.875C30.3125 3.875 29.75 4.4375 29.75 5.125V5.5H14.3125V5.4375C14.3125 5.3125 14.3125 5.1875 14.3125 5.0625C14.3125 4.4375 13.75 3.8125 13.0625 3.8125C12.375 3.8125 11.8125 4.375 11.8125 5.0625V5.5625C8.93749 5.5625 6.56249 7.9375 6.56249 10.8125V15.625C6.49999 15.8125 6.43749 15.9375 6.43749 16.125C6.06249 18.8125 5.43749 21.5 4.56249 24.0625C4.12499 25.25 3.62499 26.5 3.06249 27.625C2.56249 28.6875 2.62499 29.875 3.24999 30.8125C3.87499 31.75 4.87499 32.3125 5.99999 32.3125H6.68749C7.24999 34.625 9.31249 36.3125 11.8125 36.3125H32.0625C34.9375 36.3125 37.3125 33.9375 37.3125 31.0625V10.75C37.3125 7.875 35.0625 5.625 32.25 5.5ZM11.75 8V8.25C11.75 8.875 12.3125 9.5 13 9.5C13.6875 9.5 14.25 8.9375 14.25 8.25C14.25 8.1875 14.25 8.0625 14.25 8H29.75V8.375C29.75 9 30.3125 9.625 31 9.625C31.6875 9.625 32.25 9.0625 32.25 8.375C32.25 8.25 32.25 8.125 32.25 8C33.6875 8.125 34.8125 9.3125 34.8125 10.75V13.75C34.75 13.75 34.625 13.75 34.5625 13.75H8.99999V10.75C8.99999 9.1875 10.25 8 11.75 8ZM5.31249 29.4375C5.18749 29.1875 5.12499 28.9375 5.24999 28.6875C5.81249 27.4375 6.37499 26.1875 6.81249 24.875C7.74999 22.125 8.43749 19.3125 8.81249 16.4375C8.81249 16.375 8.87499 16.3125 8.93749 16.3125H34.5C34.5 16.3125 34.5625 16.3125 34.625 16.375C34.625 16.375 34.6875 16.4375 34.6875 16.5C34.375 19.3125 33.75 22.0625 32.875 24.6875C32.4375 26 31.875 27.3125 31.25 28.625C30.875 29.375 30.0625 29.875 29.1875 29.875H5.99999C5.68749 29.75 5.43749 29.625 5.31249 29.4375ZM32.0625 33.75H11.75C10.6875 33.75 9.81249 33.125 9.31249 32.25H29.125C30.9375 32.25 32.625 31.1875 33.4375 29.5625C33.9375 28.5625 34.375 27.5 34.75 26.4375V31C34.8125 32.5 33.5625 33.75 32.0625 33.75Z" fill="white"/>
</svg>
