<svg width="15" height="15" viewBox="0 0 15 15" fill="none" xmlns="http://www.w3.org/2000/svg">
<path d="M11.1437 0H3.71961C1.66857 0 0 1.66906 0 3.7207V10.5147C0 12.5663 1.66857 14.2354 3.71961 14.2354H11.1437C13.1947 14.2354 14.8633 12.5663 14.8633 10.5147V3.7207C14.8633 1.66906 13.1947 0 11.1437 0ZM1.31216 3.7207C1.31216 2.39302 2.39232 1.31254 3.71961 1.31254H11.1437C12.471 1.31254 13.5511 2.39302 13.5511 3.7207V10.5147C13.5511 11.8423 12.471 12.9228 11.1437 12.9228H3.71961C2.39232 12.9228 1.31216 11.8423 1.31216 10.5147V3.7207Z" fill="white"/>
<path d="M7.43155 10.5778C9.33884 10.5778 10.8914 9.02559 10.8914 7.11689C10.8914 5.20819 9.33968 3.65601 7.43155 3.65601C5.52341 3.65601 3.97168 5.20819 3.97168 7.11689C3.97168 9.02559 5.52341 10.5778 7.43155 10.5778ZM7.43155 4.96939C8.61594 4.96939 9.57925 5.93299 9.57925 7.11773C9.57925 8.30247 8.61594 9.26607 7.43155 9.26607C6.24716 9.26607 5.28384 8.30247 5.28384 7.11773C5.28384 5.93299 6.24716 4.96939 7.43155 4.96939Z" fill="white"/>
<path d="M11.2118 4.21508C11.7254 4.21508 12.144 3.79718 12.144 3.28259C12.144 2.768 11.7262 2.3501 11.2118 2.3501C10.6973 2.3501 10.2795 2.768 10.2795 3.28259C10.2795 3.79718 10.6973 4.21508 11.2118 4.21508Z" fill="white"/>
</svg>
