<svg width="22" height="22" viewBox="0 0 22 22" fill="none" xmlns="http://www.w3.org/2000/svg">
<path d="M19.0024 9.00024V6.33294C19.0024 4.86058 17.8088 3.66692 16.3365 3.66692H16.3358V9.00024H19.0024Z" stroke="black" stroke-width="2" stroke-miterlimit="10" stroke-linecap="round" stroke-linejoin="round"/>
<path d="M16.3309 3.66669C16.3309 2.19404 15.137 1.00001 13.6642 1.00001H8.33089C6.85815 1.00001 5.66425 2.19404 5.66425 3.66669V18.3334H16.3309V3.66669Z" stroke="black" stroke-width="2" stroke-miterlimit="10" stroke-linecap="round" stroke-linejoin="round"/>
<path d="M8.33057 7.66675H13.6639V3.66675H8.33057V7.66675Z" stroke="black" stroke-width="2" stroke-miterlimit="10" stroke-linecap="round" stroke-linejoin="round"/>
<path d="M18.9973 21.0001C18.9973 20.2928 18.7163 19.6147 18.2162 19.1144C17.7161 18.6144 17.0378 18.3334 16.3306 18.3334H5.66393C4.95671 18.3334 4.27842 18.6144 3.77833 19.1144C3.27821 19.6147 2.99725 20.2928 2.99725 21.0001H18.9973Z" stroke="black" stroke-width="2" stroke-miterlimit="10" stroke-linecap="round" stroke-linejoin="round"/>
<path d="M11.0027 10.3332C11.0027 10.3332 9.00275 11.9999 9.00275 13.6665C9.00275 14.7705 9.89889 15.6666 11.0027 15.6666C12.1066 15.6666 13.0027 14.7705 13.0027 13.6665C13.0027 11.9999 11.0027 10.3332 11.0027 10.3332Z" stroke="black" stroke-width="2" stroke-miterlimit="10" stroke-linecap="round" stroke-linejoin="round"/>
<path d="M16.3358 14.3332C16.3358 15.0696 16.9327 15.6666 17.6691 15.6666C18.4055 15.6666 19.0024 15.0696 19.0024 14.3332V8.99988" stroke="black" stroke-width="2" stroke-miterlimit="10" stroke-linecap="round" stroke-linejoin="round"/>
<path d="M1 21.0001H21" stroke="black" stroke-width="2" stroke-miterlimit="10" stroke-linecap="round" stroke-linejoin="round"/>
</svg>
