<svg width="16" height="11" viewBox="0 0 16 11" fill="none" xmlns="http://www.w3.org/2000/svg">
<path d="M15.2397 2.87376C15.1453 1.96222 14.9421 0.954568 14.1944 0.425019C13.6153 0.0143666 12.8541 -0.000814821 12.1434 2.8409e-05C10.6412 2.8409e-05 9.13821 0.00256139 7.63602 0.00340462C6.19115 0.00509108 4.74627 0.00593328 3.3014 0.00761974C2.69783 0.00761974 2.11111 -0.0387589 1.55053 0.222642C1.06919 0.446941 0.692375 0.873619 0.465614 1.34836C0.151181 2.00861 0.0854322 2.75655 0.047498 3.48679C-0.0224694 4.81656 -0.0148826 6.1497 0.0685725 7.47863C0.13011 8.44835 0.286059 9.52009 1.03547 10.1382C1.69974 10.6854 2.63713 10.7124 3.49866 10.7133C6.23329 10.7158 8.96877 10.7183 11.7042 10.72C12.0549 10.7208 12.4208 10.7141 12.7782 10.6753C13.4813 10.5994 14.1514 10.3979 14.6033 9.87678C15.0593 9.35145 15.1765 8.62037 15.2456 7.92807C15.4142 6.24836 15.4125 4.55263 15.2397 2.87376ZM6.05458 7.71474V3.0053L10.1313 5.3596L6.05458 7.71474Z" fill="white"/>
</svg>
